<mxfile host="app.diagrams.net" agent="Mozilla/5.0 (X11; Ubuntu; Linux x86_64; rv:135.0) Gecko/20100101 Firefox/135.0" version="26.0.15" pages="3">
  <diagram id="1HdS_ASFenrE-sZ-4W15" name="SPI_CS_FSM">
    <mxGraphModel dx="1687" dy="901" grid="1" gridSize="5" guides="1" tooltips="1" connect="1" arrows="1" fold="1" page="1" pageScale="1" pageWidth="850" pageHeight="1100" math="0" shadow="0">
      <root>
        <mxCell id="0" />
        <mxCell id="1" parent="0" />
        <mxCell id="c9cJgYokBX9ZUptAvbR2-2" value="SPI_CS" style="shape=umlFrame;whiteSpace=wrap;html=1;rounded=1;shadow=0;comic=0;labelBackgroundColor=none;strokeWidth=1;fontFamily=NewsGotT;fontSize=12;align=center;movable=1;resizable=1;rotatable=1;deletable=1;editable=1;locked=0;connectable=1;width=70;height=30;" parent="1" vertex="1">
          <mxGeometry x="40" y="50" width="360" height="220" as="geometry" />
        </mxCell>
        <mxCell id="Ms3gGG7uMFidcv7oumdJ-2" style="edgeStyle=orthogonalEdgeStyle;rounded=0;orthogonalLoop=1;jettySize=auto;html=1;entryX=0;entryY=0.5;entryDx=0;entryDy=0;curved=1;exitX=0.827;exitY=0.504;exitDx=0;exitDy=0;exitPerimeter=0;fontFamily=NewsGotT;" edge="1" parent="1" source="Ms3gGG7uMFidcv7oumdJ-3" target="Ms3gGG7uMFidcv7oumdJ-6">
          <mxGeometry relative="1" as="geometry">
            <Array as="points">
              <mxPoint x="75" y="153" />
            </Array>
          </mxGeometry>
        </mxCell>
        <mxCell id="Ms3gGG7uMFidcv7oumdJ-3" value="" style="ellipse;html=1;shape=startState;fillColor=#000000;strokeColor=default;rounded=1;shadow=0;comic=0;labelBackgroundColor=none;fontFamily=NewsGotT;fontSize=12;fontColor=#000000;align=center;direction=south;" vertex="1" parent="1">
          <mxGeometry x="60" y="100" width="30" height="30" as="geometry" />
        </mxCell>
        <mxCell id="Ms3gGG7uMFidcv7oumdJ-22" value="SPI_CS &amp;amp;&amp;amp; Tx_DV" style="edgeStyle=orthogonalEdgeStyle;rounded=0;orthogonalLoop=1;jettySize=auto;html=1;exitX=0.5;exitY=0;exitDx=0;exitDy=0;curved=1;fontFamily=NewsGotT;" edge="1" parent="1" source="Ms3gGG7uMFidcv7oumdJ-6" target="Ms3gGG7uMFidcv7oumdJ-9">
          <mxGeometry x="0.0164" y="10" relative="1" as="geometry">
            <Array as="points">
              <mxPoint x="160" y="95" />
              <mxPoint x="310" y="95" />
            </Array>
            <mxPoint as="offset" />
          </mxGeometry>
        </mxCell>
        <mxCell id="Ms3gGG7uMFidcv7oumdJ-6" value="S_IDLE" style="ellipse;whiteSpace=wrap;html=1;fontFamily=NewsGotT;" vertex="1" parent="1">
          <mxGeometry x="120" y="125" width="80" height="55" as="geometry" />
        </mxCell>
        <mxCell id="Ms3gGG7uMFidcv7oumdJ-23" value="Tx_count = 0" style="edgeStyle=orthogonalEdgeStyle;rounded=0;orthogonalLoop=1;jettySize=auto;html=1;exitX=0.5;exitY=1;exitDx=0;exitDy=0;curved=1;fontFamily=NewsGotT;labelBackgroundColor=none;" edge="1" parent="1" source="Ms3gGG7uMFidcv7oumdJ-9" target="Ms3gGG7uMFidcv7oumdJ-13">
          <mxGeometry x="-0.2955" y="25" relative="1" as="geometry">
            <Array as="points">
              <mxPoint x="330" y="225" />
            </Array>
            <mxPoint as="offset" />
          </mxGeometry>
        </mxCell>
        <mxCell id="Ms3gGG7uMFidcv7oumdJ-9" value="S_TRANSFER" style="ellipse;whiteSpace=wrap;html=1;fontFamily=NewsGotT;" vertex="1" parent="1">
          <mxGeometry x="290" y="125" width="80" height="55" as="geometry" />
        </mxCell>
        <mxCell id="Ms3gGG7uMFidcv7oumdJ-24" value="&lt;div&gt;&lt;font style=&quot;font-size: 12px;&quot; face=&quot;NewsGotT&quot;&gt;CS_inactive_count&amp;nbsp;&lt;/font&gt;&lt;/div&gt;&lt;div&gt;&lt;font style=&quot;font-size: 12px;&quot; face=&quot;NewsGotT&quot;&gt;= 0&lt;/font&gt;&lt;/div&gt;" style="edgeStyle=orthogonalEdgeStyle;rounded=0;orthogonalLoop=1;jettySize=auto;html=1;exitX=0;exitY=0.5;exitDx=0;exitDy=0;entryX=0.5;entryY=1;entryDx=0;entryDy=0;curved=1;fontFamily=NewsGotT;fontSize=11;strokeColor=default;align=center;verticalAlign=middle;fontColor=default;labelBackgroundColor=none;endArrow=classic;" edge="1" parent="1" source="Ms3gGG7uMFidcv7oumdJ-13" target="Ms3gGG7uMFidcv7oumdJ-6">
          <mxGeometry x="0.1353" y="35" relative="1" as="geometry">
            <mxPoint as="offset" />
          </mxGeometry>
        </mxCell>
        <mxCell id="Ms3gGG7uMFidcv7oumdJ-13" value="S_CS_INACTIVE" style="ellipse;whiteSpace=wrap;html=1;fontFamily=NewsGotT;" vertex="1" parent="1">
          <mxGeometry x="205" y="195" width="80" height="55" as="geometry" />
        </mxCell>
        <mxCell id="Ms3gGG7uMFidcv7oumdJ-14" style="edgeStyle=orthogonalEdgeStyle;rounded=0;orthogonalLoop=1;jettySize=auto;html=1;exitX=0.5;exitY=1;exitDx=0;exitDy=0;entryX=1;entryY=0.5;entryDx=0;entryDy=0;fontFamily=NewsGotT;fontSize=12;fontColor=default;curved=1;" edge="1" parent="1" target="Ms3gGG7uMFidcv7oumdJ-21">
          <mxGeometry relative="1" as="geometry">
            <Array as="points">
              <mxPoint x="677" y="475" />
            </Array>
            <mxPoint x="544" y="475" as="targetPoint" />
            <mxPoint x="677" y="448.75" as="sourcePoint" />
          </mxGeometry>
        </mxCell>
        <mxCell id="Ms3gGG7uMFidcv7oumdJ-15" value="&lt;div&gt;data_counter =&lt;/div&gt;&lt;div&gt;(N - 1)&lt;/div&gt;" style="edgeLabel;html=1;align=center;verticalAlign=middle;resizable=0;points=[];strokeColor=default;fontFamily=NewsGotT;fontSize=12;fontColor=default;fillColor=default;labelBackgroundColor=none;" vertex="1" connectable="0" parent="Ms3gGG7uMFidcv7oumdJ-14">
          <mxGeometry x="0.4975" y="-4" relative="1" as="geometry">
            <mxPoint x="41" y="19" as="offset" />
          </mxGeometry>
        </mxCell>
      </root>
    </mxGraphModel>
  </diagram>
  <diagram name="read_miso" id="Juiqj6YkxCS37qnOwY-p">
    <mxGraphModel dx="1434" dy="766" grid="1" gridSize="5" guides="1" tooltips="1" connect="1" arrows="1" fold="1" page="1" pageScale="1" pageWidth="850" pageHeight="1100" math="0" shadow="0">
      <root>
        <mxCell id="0" />
        <mxCell id="1" parent="0" />
        <mxCell id="IDuqStjXQ0M3vZJr6LwJ-9" style="edgeStyle=orthogonalEdgeStyle;rounded=0;orthogonalLoop=1;jettySize=auto;html=1;" edge="1" parent="1" source="IDuqStjXQ0M3vZJr6LwJ-20" target="IDuqStjXQ0M3vZJr6LwJ-3">
          <mxGeometry relative="1" as="geometry">
            <mxPoint x="365" y="100" as="sourcePoint" />
          </mxGeometry>
        </mxCell>
        <mxCell id="IDuqStjXQ0M3vZJr6LwJ-10" style="edgeStyle=orthogonalEdgeStyle;rounded=0;orthogonalLoop=1;jettySize=auto;html=1;" edge="1" parent="1" source="IDuqStjXQ0M3vZJr6LwJ-3" target="IDuqStjXQ0M3vZJr6LwJ-4">
          <mxGeometry relative="1" as="geometry" />
        </mxCell>
        <mxCell id="IDuqStjXQ0M3vZJr6LwJ-3" value="Rx_DV &amp;lt;- 0" style="rounded=0;whiteSpace=wrap;html=1;fontFamily=NewsGotT;" vertex="1" parent="1">
          <mxGeometry x="305" y="120" width="120" height="30" as="geometry" />
        </mxCell>
        <mxCell id="IDuqStjXQ0M3vZJr6LwJ-11" value="no" style="edgeStyle=orthogonalEdgeStyle;rounded=0;orthogonalLoop=1;jettySize=auto;html=1;" edge="1" parent="1" source="IDuqStjXQ0M3vZJr6LwJ-4" target="IDuqStjXQ0M3vZJr6LwJ-5">
          <mxGeometry x="0.5" y="10" relative="1" as="geometry">
            <mxPoint as="offset" />
          </mxGeometry>
        </mxCell>
        <mxCell id="IDuqStjXQ0M3vZJr6LwJ-12" style="edgeStyle=orthogonalEdgeStyle;rounded=0;orthogonalLoop=1;jettySize=auto;html=1;" edge="1" parent="1" source="IDuqStjXQ0M3vZJr6LwJ-4" target="IDuqStjXQ0M3vZJr6LwJ-6">
          <mxGeometry relative="1" as="geometry" />
        </mxCell>
        <mxCell id="IDuqStjXQ0M3vZJr6LwJ-25" value="yes" style="edgeLabel;html=1;align=center;verticalAlign=middle;resizable=0;points=[];" vertex="1" connectable="0" parent="IDuqStjXQ0M3vZJr6LwJ-12">
          <mxGeometry x="-0.4222" relative="1" as="geometry">
            <mxPoint x="-12" y="-10" as="offset" />
          </mxGeometry>
        </mxCell>
        <mxCell id="IDuqStjXQ0M3vZJr6LwJ-4" value="Tx_ready?" style="rhombus;whiteSpace=wrap;html=1;fontFamily=NewsGotT;" vertex="1" parent="1">
          <mxGeometry x="325" y="170" width="80" height="80" as="geometry" />
        </mxCell>
        <mxCell id="IDuqStjXQ0M3vZJr6LwJ-13" value="yes" style="edgeStyle=orthogonalEdgeStyle;rounded=0;orthogonalLoop=1;jettySize=auto;html=1;" edge="1" parent="1" source="IDuqStjXQ0M3vZJr6LwJ-5" target="IDuqStjXQ0M3vZJr6LwJ-7">
          <mxGeometry x="0.4552" y="15" relative="1" as="geometry">
            <mxPoint as="offset" />
          </mxGeometry>
        </mxCell>
        <mxCell id="IDuqStjXQ0M3vZJr6LwJ-26" style="edgeStyle=orthogonalEdgeStyle;rounded=0;orthogonalLoop=1;jettySize=auto;html=1;" edge="1" parent="1" source="IDuqStjXQ0M3vZJr6LwJ-5">
          <mxGeometry relative="1" as="geometry">
            <mxPoint x="365" y="545" as="targetPoint" />
            <Array as="points">
              <mxPoint x="655" y="312" />
              <mxPoint x="655" y="545" />
              <mxPoint x="365" y="545" />
            </Array>
          </mxGeometry>
        </mxCell>
        <mxCell id="IDuqStjXQ0M3vZJr6LwJ-27" value="no" style="edgeLabel;html=1;align=center;verticalAlign=middle;resizable=0;points=[];" vertex="1" connectable="0" parent="IDuqStjXQ0M3vZJr6LwJ-26">
          <mxGeometry x="-0.9462" relative="1" as="geometry">
            <mxPoint x="-9" y="-12" as="offset" />
          </mxGeometry>
        </mxCell>
        <mxCell id="IDuqStjXQ0M3vZJr6LwJ-5" value="&lt;div&gt;(leading_edge &amp;amp; ~CPHA_w)&amp;nbsp;&lt;/div&gt;&lt;div&gt;| (trailing_edge &amp;amp; CPHA_w)&lt;/div&gt;" style="rhombus;whiteSpace=wrap;html=1;fontFamily=NewsGotT;" vertex="1" parent="1">
          <mxGeometry x="270" y="270" width="190" height="85" as="geometry" />
        </mxCell>
        <mxCell id="IDuqStjXQ0M3vZJr6LwJ-23" style="edgeStyle=orthogonalEdgeStyle;rounded=0;orthogonalLoop=1;jettySize=auto;html=1;" edge="1" parent="1" source="IDuqStjXQ0M3vZJr6LwJ-6">
          <mxGeometry relative="1" as="geometry">
            <mxPoint x="365" y="545" as="targetPoint" />
            <Array as="points">
              <mxPoint x="655" y="210" />
              <mxPoint x="655" y="545" />
            </Array>
          </mxGeometry>
        </mxCell>
        <mxCell id="IDuqStjXQ0M3vZJr6LwJ-6" value="Rx_bcount &amp;lt;- 7" style="rounded=0;whiteSpace=wrap;html=1;fontFamily=NewsGotT;" vertex="1" parent="1">
          <mxGeometry x="480" y="190" width="145" height="40" as="geometry" />
        </mxCell>
        <mxCell id="IDuqStjXQ0M3vZJr6LwJ-14" style="edgeStyle=orthogonalEdgeStyle;rounded=0;orthogonalLoop=1;jettySize=auto;html=1;" edge="1" parent="1" source="IDuqStjXQ0M3vZJr6LwJ-7" target="IDuqStjXQ0M3vZJr6LwJ-8">
          <mxGeometry relative="1" as="geometry" />
        </mxCell>
        <mxCell id="IDuqStjXQ0M3vZJr6LwJ-7" value="&lt;div&gt;Rx_byte[Rx_bcount] &amp;lt;- MISO&lt;/div&gt;&lt;div&gt;Rx_bcount &amp;lt;- Rx_bcount - 1&#39;b1;&lt;/div&gt;" style="rounded=0;whiteSpace=wrap;html=1;fontFamily=NewsGotT;" vertex="1" parent="1">
          <mxGeometry x="280" y="380" width="170" height="40" as="geometry" />
        </mxCell>
        <mxCell id="IDuqStjXQ0M3vZJr6LwJ-16" value="yes" style="edgeStyle=orthogonalEdgeStyle;rounded=0;orthogonalLoop=1;jettySize=auto;html=1;" edge="1" parent="1" source="IDuqStjXQ0M3vZJr6LwJ-8" target="IDuqStjXQ0M3vZJr6LwJ-15">
          <mxGeometry x="-0.7333" y="10" relative="1" as="geometry">
            <mxPoint as="offset" />
          </mxGeometry>
        </mxCell>
        <mxCell id="IDuqStjXQ0M3vZJr6LwJ-17" value="no" style="edgeStyle=orthogonalEdgeStyle;rounded=0;orthogonalLoop=1;jettySize=auto;html=1;" edge="1" parent="1" source="IDuqStjXQ0M3vZJr6LwJ-8" target="IDuqStjXQ0M3vZJr6LwJ-22">
          <mxGeometry x="-0.7778" y="-10" relative="1" as="geometry">
            <mxPoint x="365" y="565" as="targetPoint" />
            <mxPoint as="offset" />
          </mxGeometry>
        </mxCell>
        <mxCell id="IDuqStjXQ0M3vZJr6LwJ-8" value="~Rx_bcount" style="rhombus;whiteSpace=wrap;html=1;fontFamily=NewsGotT;" vertex="1" parent="1">
          <mxGeometry x="325" y="450" width="80" height="80" as="geometry" />
        </mxCell>
        <mxCell id="IDuqStjXQ0M3vZJr6LwJ-24" style="edgeStyle=orthogonalEdgeStyle;rounded=0;orthogonalLoop=1;jettySize=auto;html=1;" edge="1" parent="1" source="IDuqStjXQ0M3vZJr6LwJ-15">
          <mxGeometry relative="1" as="geometry">
            <mxPoint x="365" y="545" as="targetPoint" />
            <Array as="points">
              <mxPoint x="555" y="545" />
            </Array>
          </mxGeometry>
        </mxCell>
        <mxCell id="IDuqStjXQ0M3vZJr6LwJ-15" value="Rx_DV&amp;nbsp;&amp;nbsp; &amp;lt;- 1" style="rounded=0;whiteSpace=wrap;html=1;fontFamily=NewsGotT;" vertex="1" parent="1">
          <mxGeometry x="480" y="470" width="145" height="40" as="geometry" />
        </mxCell>
        <mxCell id="IDuqStjXQ0M3vZJr6LwJ-20" value="&lt;b&gt;Read MISO&lt;/b&gt;" style="rounded=1;whiteSpace=wrap;html=1;arcSize=50;" vertex="1" parent="1">
          <mxGeometry x="305" y="65" width="120" height="35" as="geometry" />
        </mxCell>
        <mxCell id="IDuqStjXQ0M3vZJr6LwJ-22" value="&lt;b&gt;end&lt;/b&gt;" style="rounded=1;whiteSpace=wrap;html=1;arcSize=50;" vertex="1" parent="1">
          <mxGeometry x="322.5" y="565" width="85" height="35" as="geometry" />
        </mxCell>
      </root>
    </mxGraphModel>
  </diagram>
  <diagram id="qXmlQlBBTAjM8z9g6r9Z" name="acc_data_logic">
    <mxGraphModel dx="136" dy="547" grid="1" gridSize="10" guides="1" tooltips="1" connect="1" arrows="1" fold="1" page="1" pageScale="1" pageWidth="850" pageHeight="1100" math="0" shadow="0">
      <root>
        <mxCell id="0" />
        <mxCell id="1" parent="0" />
        <mxCell id="zWJqYj0alnFGycNp3eZW-2" value="" style="rounded=0;whiteSpace=wrap;html=1;fontFamily=NewsGotT;verticalAlign=middle;fontStyle=1;horizontal=1;" vertex="1" parent="1">
          <mxGeometry x="1030" y="69" width="180" height="40" as="geometry" />
        </mxCell>
        <mxCell id="zWJqYj0alnFGycNp3eZW-3" value="" style="endArrow=none;html=1;rounded=0;exitX=0.5;exitY=1;exitDx=0;exitDy=0;entryX=0.5;entryY=0;entryDx=0;entryDy=0;fontFamily=NewsGotT;horizontal=1;" edge="1" parent="1" source="zWJqYj0alnFGycNp3eZW-2" target="zWJqYj0alnFGycNp3eZW-2">
          <mxGeometry width="50" height="50" relative="1" as="geometry">
            <mxPoint x="1175" y="144" as="sourcePoint" />
            <mxPoint x="1225" y="94" as="targetPoint" />
          </mxGeometry>
        </mxCell>
        <mxCell id="zWJqYj0alnFGycNp3eZW-4" value="acc_data [15:0]" style="text;html=1;align=left;verticalAlign=middle;whiteSpace=wrap;rounded=0;fontFamily=NewsGotT;horizontal=1;" vertex="1" parent="1">
          <mxGeometry x="1030" y="43" width="85" height="30" as="geometry" />
        </mxCell>
        <mxCell id="zWJqYj0alnFGycNp3eZW-5" value="XX" style="text;html=1;align=center;verticalAlign=middle;whiteSpace=wrap;rounded=0;fontFamily=NewsGotT;horizontal=1;" vertex="1" parent="1">
          <mxGeometry x="1042.5" y="74" width="60" height="30" as="geometry" />
        </mxCell>
        <mxCell id="zWJqYj0alnFGycNp3eZW-6" value="XX" style="text;html=1;align=center;verticalAlign=middle;whiteSpace=wrap;rounded=0;fontFamily=NewsGotT;horizontal=1;" vertex="1" parent="1">
          <mxGeometry x="1135" y="74" width="60" height="30" as="geometry" />
        </mxCell>
        <mxCell id="zWJqYj0alnFGycNp3eZW-7" value="" style="rounded=0;whiteSpace=wrap;html=1;fontFamily=NewsGotT;verticalAlign=middle;fontStyle=1;horizontal=1;" vertex="1" parent="1">
          <mxGeometry x="1030" y="134" width="180" height="40" as="geometry" />
        </mxCell>
        <mxCell id="zWJqYj0alnFGycNp3eZW-8" value="" style="endArrow=none;html=1;rounded=0;exitX=0.5;exitY=1;exitDx=0;exitDy=0;entryX=0.5;entryY=0;entryDx=0;entryDy=0;fontFamily=NewsGotT;horizontal=1;" edge="1" parent="1" source="zWJqYj0alnFGycNp3eZW-7" target="zWJqYj0alnFGycNp3eZW-7">
          <mxGeometry width="50" height="50" relative="1" as="geometry">
            <mxPoint x="1175" y="209" as="sourcePoint" />
            <mxPoint x="1225" y="159" as="targetPoint" />
          </mxGeometry>
        </mxCell>
        <mxCell id="zWJqYj0alnFGycNp3eZW-9" value="XX" style="text;html=1;align=center;verticalAlign=middle;whiteSpace=wrap;rounded=0;fontFamily=NewsGotT;horizontal=1;" vertex="1" parent="1">
          <mxGeometry x="1042.5" y="139" width="60" height="30" as="geometry" />
        </mxCell>
        <mxCell id="zWJqYj0alnFGycNp3eZW-10" value="X0" style="text;html=1;align=center;verticalAlign=middle;whiteSpace=wrap;rounded=0;fontFamily=NewsGotT;horizontal=1;" vertex="1" parent="1">
          <mxGeometry x="1135" y="139" width="60" height="30" as="geometry" />
        </mxCell>
        <mxCell id="zWJqYj0alnFGycNp3eZW-11" value="" style="rounded=0;whiteSpace=wrap;html=1;fontFamily=NewsGotT;verticalAlign=middle;fontStyle=1;horizontal=1;" vertex="1" parent="1">
          <mxGeometry x="1030" y="199" width="180" height="40" as="geometry" />
        </mxCell>
        <mxCell id="zWJqYj0alnFGycNp3eZW-12" value="" style="endArrow=none;html=1;rounded=0;exitX=0.5;exitY=1;exitDx=0;exitDy=0;entryX=0.5;entryY=0;entryDx=0;entryDy=0;fontFamily=NewsGotT;horizontal=1;" edge="1" parent="1" source="zWJqYj0alnFGycNp3eZW-11" target="zWJqYj0alnFGycNp3eZW-11">
          <mxGeometry width="50" height="50" relative="1" as="geometry">
            <mxPoint x="1175" y="274" as="sourcePoint" />
            <mxPoint x="1225" y="224" as="targetPoint" />
          </mxGeometry>
        </mxCell>
        <mxCell id="zWJqYj0alnFGycNp3eZW-13" value="X0" style="text;html=1;align=center;verticalAlign=middle;whiteSpace=wrap;rounded=0;fontFamily=NewsGotT;horizontal=1;" vertex="1" parent="1">
          <mxGeometry x="1042.5" y="204" width="60" height="30" as="geometry" />
        </mxCell>
        <mxCell id="zWJqYj0alnFGycNp3eZW-14" value="X1" style="text;html=1;align=center;verticalAlign=middle;whiteSpace=wrap;rounded=0;fontFamily=NewsGotT;horizontal=1;" vertex="1" parent="1">
          <mxGeometry x="1135" y="204" width="60" height="30" as="geometry" />
        </mxCell>
        <mxCell id="zWJqYj0alnFGycNp3eZW-15" style="edgeStyle=orthogonalEdgeStyle;rounded=0;orthogonalLoop=1;jettySize=auto;html=1;exitX=0;exitY=0.5;exitDx=0;exitDy=0;entryX=0;entryY=0.5;entryDx=0;entryDy=0;curved=1;fontFamily=NewsGotT;horizontal=1;" edge="1" parent="1" source="zWJqYj0alnFGycNp3eZW-7" target="zWJqYj0alnFGycNp3eZW-11">
          <mxGeometry relative="1" as="geometry">
            <mxPoint x="1030" y="160" as="sourcePoint" />
            <mxPoint x="1030" y="210" as="targetPoint" />
            <Array as="points">
              <mxPoint x="1000" y="154" />
              <mxPoint x="1000" y="219" />
            </Array>
          </mxGeometry>
        </mxCell>
        <mxCell id="ggMBT60iCOflAYpcsb7Q-6" value="&lt;div&gt;&lt;br&gt;&lt;/div&gt;&lt;div&gt;&lt;br&gt;&lt;/div&gt;" style="edgeLabel;html=1;align=center;verticalAlign=middle;resizable=0;points=[];" vertex="1" connectable="0" parent="zWJqYj0alnFGycNp3eZW-15">
          <mxGeometry x="-0.3846" y="6" relative="1" as="geometry">
            <mxPoint as="offset" />
          </mxGeometry>
        </mxCell>
        <mxCell id="zWJqYj0alnFGycNp3eZW-16" value="[7:0]" style="text;html=1;align=right;verticalAlign=middle;whiteSpace=wrap;rounded=0;fontFamily=NewsGotT;fontSize=9;horizontal=1;" vertex="1" parent="1">
          <mxGeometry x="1180" y="89" width="30" height="20" as="geometry" />
        </mxCell>
        <mxCell id="zWJqYj0alnFGycNp3eZW-17" value="[15:8]" style="text;html=1;align=right;verticalAlign=middle;whiteSpace=wrap;rounded=0;fontFamily=NewsGotT;fontSize=9;horizontal=1;" vertex="1" parent="1">
          <mxGeometry x="1090" y="89" width="30" height="20" as="geometry" />
        </mxCell>
        <mxCell id="zWJqYj0alnFGycNp3eZW-18" value="[15:8]" style="text;html=1;align=right;verticalAlign=middle;whiteSpace=wrap;rounded=0;fontFamily=NewsGotT;fontSize=9;horizontal=1;" vertex="1" parent="1">
          <mxGeometry x="1090" y="154" width="30" height="20" as="geometry" />
        </mxCell>
        <mxCell id="zWJqYj0alnFGycNp3eZW-19" value="[7:0]" style="text;html=1;align=right;verticalAlign=middle;whiteSpace=wrap;rounded=0;fontFamily=NewsGotT;fontSize=9;horizontal=1;" vertex="1" parent="1">
          <mxGeometry x="1180" y="154" width="30" height="20" as="geometry" />
        </mxCell>
        <mxCell id="zWJqYj0alnFGycNp3eZW-20" value="[15:8]" style="text;html=1;align=right;verticalAlign=middle;whiteSpace=wrap;rounded=0;fontFamily=NewsGotT;fontSize=9;horizontal=1;" vertex="1" parent="1">
          <mxGeometry x="1090" y="219" width="30" height="20" as="geometry" />
        </mxCell>
        <mxCell id="zWJqYj0alnFGycNp3eZW-21" value="[7:0]" style="text;html=1;align=right;verticalAlign=middle;whiteSpace=wrap;rounded=0;fontFamily=NewsGotT;fontSize=9;horizontal=1;" vertex="1" parent="1">
          <mxGeometry x="1180" y="219" width="30" height="20" as="geometry" />
        </mxCell>
        <mxCell id="zWJqYj0alnFGycNp3eZW-22" value="rx_count ++" style="text;html=1;align=right;verticalAlign=middle;whiteSpace=wrap;rounded=0;fontFamily=NewsGotT;horizontal=1;" vertex="1" parent="1">
          <mxGeometry x="925" y="109" width="70" height="30" as="geometry" />
        </mxCell>
        <mxCell id="zWJqYj0alnFGycNp3eZW-23" value="rx_count ++" style="text;html=1;align=right;verticalAlign=middle;whiteSpace=wrap;rounded=0;fontFamily=NewsGotT;horizontal=1;" vertex="1" parent="1">
          <mxGeometry x="920" y="180" width="75" height="30" as="geometry" />
        </mxCell>
        <mxCell id="ggMBT60iCOflAYpcsb7Q-7" style="edgeStyle=orthogonalEdgeStyle;rounded=0;orthogonalLoop=1;jettySize=auto;html=1;exitX=0;exitY=0.5;exitDx=0;exitDy=0;entryX=0;entryY=0.5;entryDx=0;entryDy=0;curved=1;fontFamily=NewsGotT;horizontal=1;" edge="1" parent="1" target="zWJqYj0alnFGycNp3eZW-7">
          <mxGeometry relative="1" as="geometry">
            <mxPoint x="1030" y="89" as="sourcePoint" />
            <mxPoint x="1030" y="159" as="targetPoint" />
            <Array as="points">
              <mxPoint x="1000" y="89" />
              <mxPoint x="1000" y="154" />
            </Array>
          </mxGeometry>
        </mxCell>
        <mxCell id="ggMBT60iCOflAYpcsb7Q-8" value="&lt;div&gt;&lt;br&gt;&lt;/div&gt;&lt;div&gt;&lt;br&gt;&lt;/div&gt;" style="edgeLabel;html=1;align=center;verticalAlign=middle;resizable=0;points=[];" vertex="1" connectable="0" parent="ggMBT60iCOflAYpcsb7Q-7">
          <mxGeometry x="-0.3846" y="6" relative="1" as="geometry">
            <mxPoint as="offset" />
          </mxGeometry>
        </mxCell>
        <mxCell id="ggMBT60iCOflAYpcsb7Q-9" value="&amp;lt;&amp;lt; 8 bits" style="text;html=1;align=center;verticalAlign=middle;resizable=0;points=[];autosize=1;strokeColor=none;fillColor=none;fontFamily=NewsGotT;fontSize=12;" vertex="1" parent="1">
          <mxGeometry x="1090" y="109" width="60" height="30" as="geometry" />
        </mxCell>
        <mxCell id="ggMBT60iCOflAYpcsb7Q-11" value="&lt;font style=&quot;font-size: 12px;&quot;&gt;&amp;lt;&amp;lt; 8 bits&lt;/font&gt;" style="text;html=1;align=center;verticalAlign=middle;resizable=0;points=[];autosize=1;strokeColor=none;fillColor=none;fontFamily=NewsGotT;fontSize=17;" vertex="1" parent="1">
          <mxGeometry x="1090" y="174" width="60" height="30" as="geometry" />
        </mxCell>
        <mxCell id="ggMBT60iCOflAYpcsb7Q-13" style="edgeStyle=orthogonalEdgeStyle;rounded=0;orthogonalLoop=1;jettySize=auto;html=1;entryX=1;entryY=0.5;entryDx=0;entryDy=0;" edge="1" parent="1" source="ggMBT60iCOflAYpcsb7Q-12" target="zWJqYj0alnFGycNp3eZW-7">
          <mxGeometry relative="1" as="geometry" />
        </mxCell>
        <mxCell id="ggMBT60iCOflAYpcsb7Q-12" value="Rx_byte[7:0]" style="text;html=1;align=left;verticalAlign=middle;resizable=0;points=[];autosize=1;strokeColor=none;fillColor=none;fontFamily=NewsGotT;fontSize=12;" vertex="1" parent="1">
          <mxGeometry x="1250" y="139" width="80" height="30" as="geometry" />
        </mxCell>
        <mxCell id="ggMBT60iCOflAYpcsb7Q-15" style="edgeStyle=orthogonalEdgeStyle;rounded=0;orthogonalLoop=1;jettySize=auto;html=1;entryX=1;entryY=0.5;entryDx=0;entryDy=0;" edge="1" parent="1" source="ggMBT60iCOflAYpcsb7Q-14" target="zWJqYj0alnFGycNp3eZW-11">
          <mxGeometry relative="1" as="geometry" />
        </mxCell>
        <mxCell id="ggMBT60iCOflAYpcsb7Q-14" value="Rx_byte[7:0]" style="text;html=1;align=left;verticalAlign=middle;resizable=0;points=[];autosize=1;strokeColor=none;fillColor=none;fontFamily=NewsGotT;fontSize=12;" vertex="1" parent="1">
          <mxGeometry x="1250" y="204" width="80" height="30" as="geometry" />
        </mxCell>
      </root>
    </mxGraphModel>
  </diagram>
</mxfile>
